<svg id="Group_4194" data-name="Group 4194" xmlns="http://www.w3.org/2000/svg" width="34" height="28.286" viewBox="0 0 34 28.286">
  <path id="Path_11400" data-name="Path 11400" d="M.543,54.168,12.822,41.889a1.866,1.866,0,0,1,2.632,0L16.569,43a1.847,1.847,0,0,1,.543,1.316,1.883,1.883,0,0,1-.543,1.331L9.405,52.83H32.163A1.816,1.816,0,0,1,34,54.66v1.576a1.886,1.886,0,0,1-1.837,1.911H9.324l7.244,7.219a1.843,1.843,0,0,1,0,2.613L15.454,69.09a1.867,1.867,0,0,1-2.632,0L.543,56.809a1.877,1.877,0,0,1,0-2.641Z" transform="translate(0 -41.346)" fill="#475054"/>
</svg>
