<svg xmlns="http://www.w3.org/2000/svg" width="15.45" height="15.451" viewBox="0 0 15.45 15.451">
  <g id="fast-forward-double-right-arrows-symbol" transform="translate(15.484 0.001) rotate(90)">
    <g id="_x35__11_" transform="translate(-0.001 0.035)">
      <g id="Group_39" data-name="Group 39">
        <path id="Path_134" data-name="Path 134" d="M15.07,6.842,8.643.415A1.3,1.3,0,1,0,6.807,2.251L12.316,7.76,6.807,13.268A1.3,1.3,0,0,0,8.643,15.1L15.07,8.677A1.3,1.3,0,0,0,15.07,6.842ZM7.342,6.453,2.24,1.075a1.266,1.266,0,0,0-1.856,0,1.435,1.435,0,0,0,0,1.956l4.175,4.4-4.175,4.4a1.435,1.435,0,0,0,0,1.956,1.266,1.266,0,0,0,1.856,0l5.1-5.378A1.435,1.435,0,0,0,7.342,6.453Z" transform="translate(0.001 -0.035)"/>
      </g>
    </g>
  </g>
</svg>
