<svg xmlns="http://www.w3.org/2000/svg" width="15.45" height="15.451" viewBox="0 0 15.45 15.451">
  <g id="fast-forward-double-right-arrows-symbol" transform="translate(0 15.451) rotate(-90)">
    <g id="_x35__11_" transform="translate(0 0)">
      <g id="Group_39" data-name="Group 39">
        <path id="Path_134" data-name="Path 134" d="M15.071,8.642,8.644,15.07a1.3,1.3,0,0,1-1.836-1.836l5.509-5.509L6.808,2.216A1.3,1.3,0,0,1,8.644.38l6.427,6.427A1.3,1.3,0,0,1,15.071,8.642Zm-7.728.389-5.1,5.378a1.266,1.266,0,0,1-1.856,0,1.435,1.435,0,0,1,0-1.956l4.175-4.4L.385,3.653a1.435,1.435,0,0,1,0-1.956,1.266,1.266,0,0,1,1.856,0l5.1,5.378A1.435,1.435,0,0,1,7.343,9.031Z"/>
      </g>
    </g>
  </g>
</svg>
