<svg xmlns="http://www.w3.org/2000/svg" width="47.404" height="64.354" viewBox="0 0 47.404 64.354">
  <g id="bag" transform="translate(-0.001)">
    <path id="Path_162" data-name="Path 162" d="M69.453,216.387a17.125,17.125,0,1,1,17.125-17.125A17.144,17.144,0,0,1,69.453,216.387Zm0-32.361a15.236,15.236,0,1,0,15.236,15.236A15.253,15.253,0,0,0,69.453,184.027Zm0,0" transform="translate(-45.75 -159.244)" fill="#dfdee3"/>
    <path id="Path_163" data-name="Path 163" d="M122.146,260.624h-.261a9.856,9.856,0,0,0-7.084-8.509,2.757,2.757,0,1,0-5.41,0,9.857,9.857,0,0,0-7.083,8.509h-.261a.945.945,0,1,0,0,1.889h20.1a.945.945,0,1,0,0-1.889Zm-10.049-9.91a.866.866,0,0,1,.847,1.059c-.279-.024-.561-.039-.847-.039s-.568.015-.847.039a.866.866,0,0,1,.847-1.059Zm-7.89,9.91a7.946,7.946,0,0,1,15.779,0Zm0,0" transform="translate(-88.393 -217.549)" fill="#dfdee3"/>
    <path id="Path_164" data-name="Path 164" d="M46.354,39.651a.945.945,0,1,0-1.887.086L45.51,62.465H1.9L3.958,17.572h39.49L44.267,35.4a.945.945,0,0,0,1.887-.086L45.33,17.362a1.757,1.757,0,0,0-1.758-1.679h-6.25V6.014c0-.018,0-.035,0-.053s0-.021,0-.032A1,1,0,0,0,37.3,5.82v0a1.069,1.069,0,0,0-.029-.105l-.009-.024a.824.824,0,0,0-.035-.083.123.123,0,0,0-.006-.014L34.841.831A1.5,1.5,0,0,0,33.5,0H13.909a1.494,1.494,0,0,0-1.344.831l-2.38,4.761-.006.015c-.013.027-.025.054-.035.082l-.009.024a.948.948,0,0,0-.029.105v0a.877.877,0,0,0-.016.109c0,.011,0,.021,0,.032s0,.035,0,.053v9.669H3.834a1.757,1.757,0,0,0-1.758,1.679L0,62.514a1.76,1.76,0,0,0,1.758,1.841H45.646A1.76,1.76,0,0,0,47.4,62.514Zm-14.1-23.968V6.959h3.18v8.724ZM14.148,1.889H33.258l1.59,3.18H12.558ZM11.974,6.959h3.18V8.371a.945.945,0,0,0,1.889,0V6.959H30.363v8.724H17.043V12.842a.945.945,0,1,0-1.889,0v2.841h-3.18Zm0,0" transform="translate(0)" fill="#dfdee3"/>
  </g>
</svg>
