<svg xmlns="http://www.w3.org/2000/svg" width="17.386" height="19.782" viewBox="0 0 17.386 19.782">
  <g id="bin" transform="translate(-31)">
    <g id="Group_54" data-name="Group 54" transform="translate(32.206 5.795)">
      <g id="Group_53" data-name="Group 53">
        <path id="Path_154" data-name="Path 154" d="M62.2,150l1.027,12.392a1.748,1.748,0,0,0,1.732,1.594h9.458a1.748,1.748,0,0,0,1.732-1.594L77.18,150Zm4.589,11.668a.58.58,0,0,1-.578-.543l-.58-9.35a.58.58,0,0,1,.542-.615.571.571,0,0,1,.615.542l.58,9.35A.58.58,0,0,1,66.794,161.668Zm3.478-.58a.58.58,0,1,1-1.159,0v-9.35a.58.58,0,0,1,1.159,0Zm3.476-9.314-.58,9.35a.58.58,0,0,1-1.157-.072l.58-9.35a.589.589,0,0,1,.615-.542A.58.58,0,0,1,73.748,151.775Z" transform="translate(-62.205 -150)" fill="#f8f7fc"/>
      </g>
    </g>
    <g id="Group_56" data-name="Group 56" transform="translate(31)">
      <g id="Group_55" data-name="Group 55" transform="translate(0)">
        <path id="Path_155" data-name="Path 155" d="M47.227,2.318H43.75v-.58A1.741,1.741,0,0,0,42.011,0H37.375a1.741,1.741,0,0,0-1.739,1.739v.58H32.159a1.159,1.159,0,0,0,0,2.318H47.227a1.159,1.159,0,0,0,0-2.318Zm-4.636,0H36.8v-.58a.58.58,0,0,1,.58-.58h4.636a.58.58,0,0,1,.58.58Z" transform="translate(-31)" fill="#f8f7fc"/>
      </g>
    </g>
  </g>
</svg>
