<svg xmlns="http://www.w3.org/2000/svg" width="224.911" height="144.144" viewBox="0 0 224.911 144.144">
  <path id="Path_32" data-name="Path 32" d="M337.424,28.656l-6.118,4.167c-3.332,2.264-8.089,5.5-9.883,6.059s-3.8,2.592-4.97,4.723-7.292,2.957-7.292,2.957l-3.171,4.167s-5.277.917-7.179,2.215-6.98,6.755-6.98,6.755l-6.755-.75A50.724,50.724,0,0,1,279.631,64c-1.9,1.294-9.51,6.477-9.51,6.477s-3.436,3.007-6.291,4.951-3.115.784-5.862,1.987-5.658,6.527-5.658,6.527a8.438,8.438,0,0,0-7.075,1.473c-3.8,2.592-7.4,9.728-9.311,11.022s-9.285-1.035-9.285-1.035l-11.364,10.416-7.443,1.058-4.6,5.138-8.132,2.866-2.808,4.586-7.4,3.7-4.969,4.723a7.269,7.269,0,0,0-5.23,3.562c-1.75,3.2-1.75,3.2-3.176,4.167s-2.912,5.328-2.912,5.328l-6.018.084s-4.341,6.3-5.767,7.269-5.754,1.245-5.754,1.245l-7.184,2.215-4.861,3.981-6.339,2.306-3.492,6.394s-3.379-.373-4.8.6-2.916,5.324-2.916,5.324l-6.014.088-2.487,2.36s-.169-.034-.459-.1V28.656Z" transform="translate(337.424 172.8) rotate(180)" fill="#feb500"/>
</svg>
