<svg xmlns="http://www.w3.org/2000/svg" width="28" height="25.004" viewBox="0 0 28 25.004">
  <g id="_11_shopping_cart" data-name="11 shopping cart" transform="translate(-2 -2.996)">
    <path id="Path_48" data-name="Path 48" d="M30,11.5A2.5,2.5,0,0,1,27.5,14H4.5a2.5,2.5,0,0,1,0-5H7.59l5.7-5.71a1,1,0,0,1,1.42,1.42L10.41,9H21.59l-4.3-4.29a1,1,0,1,1,1.42-1.42L24.41,9H27.5A2.5,2.5,0,0,1,30,11.5ZM4.27,15H27.73l-.29,2H21a1,1,0,1,0,0,2h6.16L26,27.14A1,1,0,0,1,25,28H7a1,1,0,0,1-1-.86L4.84,19H11a1,1,0,0,0,0-2H4.56ZM12,25.8l-1-5a1.02,1.02,0,1,0-2,.4l1,5a1,1,0,0,0,1,.8h.2a1,1,0,0,0,.8-1.2Zm8,0a1,1,0,0,0,.8,1.2H21a1,1,0,0,0,1-.8l1-5a1.02,1.02,0,1,0-2-.4ZM15,18a1,1,0,1,0-1,1A1,1,0,0,0,15,18Zm2,3a1,1,0,0,0-2,0v5a1,1,0,0,0,2,0Zm2-3a1,1,0,1,0-1,1A1,1,0,0,0,19,18Z" fill="#f8f7fc"/>
  </g>
</svg>
