<svg xmlns="http://www.w3.org/2000/svg" width="69.363" height="65.569" viewBox="0 0 69.363 65.569">
  <g id="delivery-man" transform="translate(0 -14)" opacity="0.095">
    <path id="Path_158" data-name="Path 158" d="M65.682,33.5H53.919a3.686,3.686,0,0,0-3.681,3.683V50.727h-4.4a10.106,10.106,0,0,0,.276-3.157h0a29.529,29.529,0,0,0-2.781-12.916,13.858,13.858,0,0,0-4.305-5.19,9.422,9.422,0,0,0,2.521-6.672,8.621,8.621,0,1,0-17.239,0,1.016,1.016,0,0,0,1.016,1.016h.69a7.154,7.154,0,0,0-.1,1.171,7.055,7.055,0,0,0,5.668,6.911,17.125,17.125,0,0,0-.506,4.42l-2.534,2.18-6.166.5-7.113-2.351a2.154,2.154,0,0,0-2.032,0,1.8,1.8,0,0,0-.632,1.516v5.288a1.016,1.016,0,0,0,1.016,1.016h1.21l-1.855,6.411a1.016,1.016,0,0,0,1.952.565l2.019-6.976h2.889c-3.593,10.956-1.543,18.269,1.608,25.67H19.615l-7.607-8.506,1.609-5.557a1.016,1.016,0,0,0-1.952-.565l-1.539,5.316a10.22,10.22,0,0,0-10.1,7.922,1.016,1.016,0,0,0,.762,1.218l1.442.332a7.774,7.774,0,0,0,15.024,3.457l1.138.262a1.327,1.327,0,0,0,.982-.055,1.166,1.166,0,0,0,.572-.78,10.108,10.108,0,0,0,.164-1.012h21.25a8.658,8.658,0,0,0,17.136,0h.775l.189,0a1.392,1.392,0,0,0,1.055-.383,1.3,1.3,0,0,0,.359-.988,11.519,11.519,0,0,0-.416-2.752c.809-4.913.031-7.906-1.124-10.248a2.675,2.675,0,0,0,1.214-2.239V52.759h5.132a3.686,3.686,0,0,0,3.681-3.683V37.188A3.686,3.686,0,0,0,65.682,33.5ZM13.017,75.9a5.7,5.7,0,0,1-4.334.73h0a5.757,5.757,0,0,1-4.451-5.881l11.021,2.537A5.712,5.712,0,0,1,13.017,75.9ZM18.1,71.853,2.3,68.216a8.182,8.182,0,0,1,8.09-5.361l7.743,8.657Q18.118,71.684,18.1,71.853ZM33.448,54.147a9.046,9.046,0,0,0-.295,3.064v3.834H29.432v-5.26c0-5.947,3.246-7.007,4.7-7.182H44.1a4.307,4.307,0,0,1-.923,2.918,4.718,4.718,0,0,1-3.525,1.057l-3.647,0a2.448,2.448,0,0,0-2.553,1.564Zm-.295,8.931V65.5H25.907a2.9,2.9,0,0,1,.7-1.738,2.507,2.507,0,0,1,1.809-.688Zm10.9-16.506h-9.24a37.938,37.938,0,0,1-.974-3.76l2.809-1.823a4.194,4.194,0,0,0,2.189-3.861A3.592,3.592,0,0,0,36.6,34.187a3.668,3.668,0,0,0-3.41.376,12,12,0,0,1,.491-2.576,7.162,7.162,0,0,0,1.286-.254,8.417,8.417,0,0,0,2.372-.94C39.292,31.962,43.6,35.754,44.051,46.572Zm-17.636-24.8a6.578,6.578,0,0,1,13.1,1.016,6.9,6.9,0,0,1-3.8,6.549V23.994a2.022,2.022,0,0,0-2.041-2.215q-.046,0-.092,0Zm1.535,3.2a5.06,5.06,0,0,1,.135-1.171h5.45c.063.007.109.014.141.021a1.208,1.208,0,0,1,.01.166v5.944a5.026,5.026,0,0,1-.729.054h-.007A5.015,5.015,0,0,1,27.95,24.978Zm-1.317,15.7,2.407-.195a1.017,1.017,0,0,0,.581-.242l4.343-3.736h0a2.018,2.018,0,0,1,1.3-.547,1.564,1.564,0,0,1,1.544,1.363,2.241,2.241,0,0,1-1.273,1.959L30.7,42.425H26.633V40.682Zm-4.294.347,2.262-.183v1.578H21.972c-.341,0-.424-.283-.434-.521A.807.807,0,0,1,22.339,41.03Zm-2.4-.7a2.935,2.935,0,0,0-.374,2.088s0,.006,0,.008H14.636V38.568l5.3,1.753Zm2.044,4.129H31a1.016,1.016,0,0,0,.553-.164l.46-.3c.221.978.473,1.929.748,2.828-2.072.612-5.361,2.588-5.361,8.963v5.362a4.241,4.241,0,0,0-2.262,1.215,4.956,4.956,0,0,0-1.27,3.142h-2.05c-2.065-5.952-2.851-12.287.159-21.047Zm1.675,25.667c-.376-.864-.738-1.724-1.078-2.588h10.55c1.367,0,2.061-.622,2.061-1.85V58.228H43.2a1.016,1.016,0,0,0,0-2.032H35.192a4.6,4.6,0,0,1,.156-1.328c.051-.136.1-.253.654-.253l3.648,0c2.285,0,3.919-.555,5-1.69.05-.053.1-.108.144-.163H58.518v2.793a.652.652,0,0,1-.643.644H47.76a1.016,1.016,0,1,0,0,2.032h9.518A12,12,0,0,1,58.76,64.5a11.027,11.027,0,0,0-16.795-1.312,11.193,11.193,0,0,0-3.194,6.935Zm26.276,7.414a6.7,6.7,0,0,1-6.5-5.378H56.432A6.7,6.7,0,0,1,49.929,77.537Zm7.658-7.41H40.812a9.114,9.114,0,0,1,8.99-8.18,9.016,9.016,0,0,1,8.646,6.461l.011.036a9.379,9.379,0,0,1,.335,1.683Zm9.744-21.052a1.652,1.652,0,0,1-1.649,1.651H52.27V45.48H67.331Zm0-5.628H52.27V41.286H67.331Zm0-4.193H52.27V37.188a1.652,1.652,0,0,1,1.649-1.651H65.682a1.652,1.652,0,0,1,1.649,1.651Z"/>
  </g>
</svg>
