<svg xmlns="http://www.w3.org/2000/svg" width="19.276" height="19.279" viewBox="0 0 19.276 19.279">
  <g id="Icons" transform="translate(-5 -4.998)">
    <path id="Path_46" data-name="Path 46" d="M28.684,5.77a2.622,2.622,0,0,0-3.716,0l-9.432,9.456a.482.482,0,0,0-.135.284L15,18.918a.483.483,0,0,0,.482.54h.053l3.436-.357a.482.482,0,0,0,.289-.14L28.684,9.5a2.646,2.646,0,0,0,0-3.73ZM18.7,18.152l-2.67.284.308-2.646,7.451-7.47,2.357,2.362ZM26.823,10,24.467,7.635l1.181-1.19a1.7,1.7,0,0,1,2.362,0,1.672,1.672,0,0,1,0,2.362Z" transform="translate(-5.177)" fill="#f8f7fc"/>
    <path id="Path_47" data-name="Path 47" d="M21.386,22.977a2.41,2.41,0,0,1-2.41,2.41H8.374a2.41,2.41,0,0,1-2.41-2.41v-10.6a2.41,2.41,0,0,1,2.41-2.41H15.6V9H8.374A3.374,3.374,0,0,0,5,12.374v10.6A3.374,3.374,0,0,0,8.374,26.35h10.6a3.374,3.374,0,0,0,3.374-3.374V15.747h-.964Z" transform="translate(0 -2.073)" fill="#f8f7fc"/>
  </g>
</svg>
