<svg xmlns="http://www.w3.org/2000/svg" width="21.744" height="22.952" viewBox="0 0 21.744 22.952">
  <g id="svgexport-10_12_" data-name="svgexport-10 (12)" transform="translate(0.15 0.15)">
    <path id="Path_78861" data-name="Path 78861" d="M6.713,5h7.43a.419.419,0,1,1,0,.838H7.132v5.314l2,2a2.2,2.2,0,0,0,1.576.645h1.676a.44.44,0,0,1,.3.122l3.206,3.231a1.2,1.2,0,0,0,1.7-1.7l-2.313-2.318a2,2,0,0,1-.281-2.515l.046-.071a2.016,2.016,0,0,1,3.717,1.077v4.656a1.2,1.2,0,0,0,2.406,0V8.076a2.263,2.263,0,0,0-2.238-2.238H16.239a.419.419,0,0,1,0-.838h9.329a2.041,2.041,0,1,1,0,4.082H24.311l.524.528a.419.419,0,1,1-.591.591L22.022,7.984v3.39l2.695,2.7a1.257,1.257,0,0,0,1.7,0,1.2,1.2,0,0,0,0-1.7l-.687-.683a.419.419,0,0,1,.591-.6l.687.675a2.041,2.041,0,1,1-2.883,2.871l-2.1-2.1v3.734a2.037,2.037,0,0,1-3.244,1.643v.792l2.594,2.133h1.2a.419.419,0,0,1,.419.419v5.968a.419.419,0,0,1-.419.419H14.144a.419.419,0,0,1-.419-.419V25.791a.419.419,0,0,1,.838,0v1.023h7.6V21.688H19.738V23.7a.419.419,0,0,1-.419.419H17.4a.419.419,0,0,1-.419-.419V21.688H14.563V23.7a.419.419,0,0,1-.838,0V21.269a.419.419,0,0,1,.419-.419h1.207l2.59-2.133v-.8a2.041,2.041,0,0,1-2.665-.2L12.22,14.639H10.711a3.051,3.051,0,0,1-2.171-.9L6.416,11.613a.419.419,0,0,1-.122-.293v-5.9A.419.419,0,0,1,6.713,5ZM23.456,8.223h2.1a1.2,1.2,0,1,0,0-2.406H21.046c.038.038.08.075.117.117ZM17.823,23.276H18.9V21.688H17.823ZM16.667,20.85h3.386l-1.676-1.391Zm1.257-9.22A1.178,1.178,0,0,0,15.753,11l-.042.071a1.173,1.173,0,0,0,.176,1.471L17.941,14.6Z" transform="translate(-6.294 -5)" fill="#999fac" stroke="#999fac" stroke-width="0.3"/>
  </g>
</svg>
