<svg xmlns="http://www.w3.org/2000/svg" width="89.557" height="91.002" viewBox="0 0 89.557 91.002">
  <g id="svgexport-7_2_" data-name="svgexport-7 (2)" transform="translate(-3.63 0.502)">
    <g id="Group_1050" data-name="Group 1050" transform="translate(4.136 0)">
      <path id="Path_2237" data-name="Path 2237" d="M81.079,33.444a1.318,1.318,0,0,0-1.318,1.318V60.681a1.318,1.318,0,1,0,2.637,0V53.248l9.466-3.921a1.319,1.319,0,0,0,.717-1.725L84.465,28.008a9.768,9.768,0,0,0-9.051-6.048H68.228a1.244,1.244,0,0,1-.813-.3l-1.791-1.545a6.157,6.157,0,0,0-1.223-.821,1.434,1.434,0,0,1-.814-1.264V17.2a7.489,7.489,0,0,0-4.34-6.828,1.552,1.552,0,0,1-.909-1.522A1.584,1.584,0,0,1,59.777,7.4a1.559,1.559,0,0,1,1.4.678,1.642,1.642,0,0,1,.265.92,3.7,3.7,0,0,0,3.792,3.65,3.753,3.753,0,0,0,3.6-3.843,8.952,8.952,0,1,0-12.673,8.287c.032.053.023.059.024.933a1.434,1.434,0,0,1-.814,1.264,6.16,6.16,0,0,0-1.224.822l-1.791,1.545a1.245,1.245,0,0,1-.813.3H45.174a1.244,1.244,0,0,1-.813-.3l-1.792-1.545a6.17,6.17,0,0,0-1.223-.821,1.435,1.435,0,0,1-.814-1.264V17.2a7.489,7.489,0,0,0-4.34-6.828,1.552,1.552,0,0,1-.909-1.522A1.584,1.584,0,0,1,36.723,7.4a1.553,1.553,0,0,1,1.4.677,1.645,1.645,0,0,1,.265.92,3.7,3.7,0,0,0,3.792,3.65,3.753,3.753,0,0,0,3.6-3.843,8.952,8.952,0,1,0-12.673,8.287c.032.053.023.059.024.933a1.434,1.434,0,0,1-.814,1.264,6.15,6.15,0,0,0-1.224.822l-1.791,1.545a1.245,1.245,0,0,1-.813.3H21.4a9.768,9.768,0,0,0-9.051,6.048L8.306,37.78a1.318,1.318,0,0,0,2.436,1.009l4.047-9.771A7.14,7.14,0,0,1,21.4,24.6h3.659a11.852,11.852,0,0,0,7.7,9.8L27.291,47.6A1.318,1.318,0,0,0,28,49.325l9.47,3.923V87.363H17.057v-52.6a1.318,1.318,0,0,0-2.637,0V50.394l-7.243-3,1.11-2.681A1.318,1.318,0,0,0,5.852,43.7L4.236,47.6a1.318,1.318,0,0,0,.713,1.722l9.47,3.923V88.682A1.318,1.318,0,0,0,15.739,90h65.34A1.318,1.318,0,0,0,82.4,88.682V66.833a1.318,1.318,0,0,0-2.637,0v20.53H40.111v-52.6a1.318,1.318,0,0,0-2.637,0V50.394l-7.243-3,7.612-18.376a7.161,7.161,0,0,1,2.03-2.765,1.307,1.307,0,0,0,.152-.123A7.145,7.145,0,0,1,44.458,24.6h3.658a11.814,11.814,0,0,0,4.208,7.8,1.318,1.318,0,1,0,1.685-2.029,9.273,9.273,0,0,1-1.127-1.111,8.648,8.648,0,0,0,4.31-1.994L58.648,26h2.479l1.456,1.256a8.647,8.647,0,0,0,4.3,1.993,9.193,9.193,0,0,1-8.005,3.178,1.318,1.318,0,1,0-.284,2.621A11.861,11.861,0,0,0,71.659,24.6h3.755a7.14,7.14,0,0,1,6.616,4.42l7.611,18.376-7.243,3V34.762a1.318,1.318,0,0,0-1.319-1.318Zm-50.05-9.789L32.82,22.11a3.533,3.533,0,0,1,.7-.47,4.059,4.059,0,0,0,2.252-3.614V17.2A2.719,2.719,0,0,0,34.222,14.7a6.315,6.315,0,1,1,8.925-5.852,1.138,1.138,0,0,1-1.034,1.163,1.062,1.062,0,0,1-1.09-1.048,4.188,4.188,0,0,0-4.46-4.2,4.239,4.239,0,0,0-3.912,3.913,4.17,4.17,0,0,0,2.45,4.086A4.847,4.847,0,0,1,37.9,17.2v.831a4.059,4.059,0,0,0,2.253,3.614,5.231,5.231,0,0,1,1.134.844,9.757,9.757,0,0,0-2.131,1.03,1.445,1.445,0,0,0-.635-.147H35.151a1.44,1.44,0,0,0-.944.351l-1.791,1.545a6.009,6.009,0,0,1-3.923,1.458H28.3a9.14,9.14,0,0,1-.581-2.125h.771A3.882,3.882,0,0,0,31.029,23.655Zm-1.184,5.6a8.648,8.648,0,0,0,4.294-1.992l1.456-1.256h.93a9.87,9.87,0,0,0-1.118,2l-1.638,3.955A9.21,9.21,0,0,1,29.845,29.252Zm38.383-2.53a6.009,6.009,0,0,1-3.923-1.458l-1.786-1.54a1.444,1.444,0,0,0-.949-.355H58.205a1.44,1.44,0,0,0-.944.351l-1.791,1.545a6.007,6.007,0,0,1-3.923,1.458h-.2a9.173,9.173,0,0,1-.571-2.125h.774a3.882,3.882,0,0,0,2.535-.942l1.791-1.544a3.534,3.534,0,0,1,.7-.47,4.059,4.059,0,0,0,2.252-3.614V17.2A2.719,2.719,0,0,0,57.277,14.7,6.315,6.315,0,1,1,66.2,8.85a1.138,1.138,0,0,1-1.034,1.164,1.062,1.062,0,0,1-1.09-1.048,4.189,4.189,0,0,0-4.46-4.2,4.238,4.238,0,0,0-3.912,3.912,4.169,4.169,0,0,0,2.45,4.086A4.847,4.847,0,0,1,60.95,17.2v.831A4.059,4.059,0,0,0,63.2,21.641a13.78,13.78,0,0,1,2.49,2.014,3.883,3.883,0,0,0,2.535.942H69a9.123,9.123,0,0,1-.574,2.125Z" transform="translate(-4.136 0)" fill="#7e53fd" stroke="#7e53fd" stroke-width="1"/>
      <path id="Path_2238" data-name="Path 2238" d="M347.358,225.187a1.318,1.318,0,0,0-1.318,1.318v6.063a6.884,6.884,0,1,0,13.767,0v-6.063a1.318,1.318,0,0,0-1.318-1.318Zm9.812,7.381a4.247,4.247,0,1,1-8.494,0v-4.744h8.494Z" transform="translate(-285.94 -185.604)" fill="#7e53fd" stroke="#7e53fd" stroke-width="1"/>
    </g>
  </g>
</svg>
