<svg id="knife-and-fork" xmlns="http://www.w3.org/2000/svg" width="38.661" height="35.589" viewBox="0 0 38.661 35.589">
  <g id="Layer_1_82_" transform="translate(0 0)">
    <g id="Group_13" data-name="Group 13">
      <path id="Path_34" data-name="Path 34" d="M298.513,323.385l-10.839-11.01a5.884,5.884,0,0,1-1.28.6,5.5,5.5,0,0,1-1.707.256,7.269,7.269,0,0,1-1.963-.341l-3.5,3.67a3.378,3.378,0,0,0,1.621.6,2.962,2.962,0,0,0,2.134-.853l.085-.085L293.9,327.737a2.267,2.267,0,0,0,3.243,0l1.366-1.366a2.332,2.332,0,0,0,.683-1.622A1.658,1.658,0,0,0,298.513,323.385Z" transform="translate(-260.534 -293.001)" fill="#feb500"/>
      <path id="Path_35" data-name="Path 35" d="M64.929,43.668,68.172,40.6a6.5,6.5,0,0,1-.256-1.792,5.754,5.754,0,0,1,.853-2.9l-6.828-7.084a2.784,2.784,0,0,0-3.841,0,4.969,4.969,0,0,0-.256,6.657Z" transform="translate(-52.895 -27.709)" fill="#feb500"/>
      <path id="Path_36" data-name="Path 36" d="M22.275,39.933a2.679,2.679,0,0,0,3.755,0l8.62-8.62a.825.825,0,0,0,0-1.195l-.171-.171a.825.825,0,0,0-1.195,0l-5.718,5.718a1.283,1.283,0,0,1-.939.341,1.789,1.789,0,0,1-.939-.341l-.171-.171a1.238,1.238,0,0,1,0-1.792l5.718-5.718a.825.825,0,0,0,0-1.195l-.171-.171a.825.825,0,0,0-1.195,0l-5.718,5.718a1.283,1.283,0,0,1-.939.341,1.789,1.789,0,0,1-.939-.341l-.171-.171a1.284,1.284,0,0,1-.341-.939,1.79,1.79,0,0,1,.341-.939l5.718-5.718a.825.825,0,0,0,0-1.195l-.171-.171a.775.775,0,0,0-.6-.256c-.256,0,0,.341-.171.512l-8.62,8.62a2.648,2.648,0,0,0-.768,1.878,2.509,2.509,0,0,0,.768,1.878l.256.256L.683,52.991a2.267,2.267,0,0,0,0,3.243l1.28,1.451a2.533,2.533,0,0,0,1.622.853h0a2.533,2.533,0,0,0,1.622-.853L22.019,39.677Z" transform="translate(0 -22.949)" fill="#feb500"/>
    </g>
  </g>
</svg>
