<?xml version="1.0" encoding="utf-8"?>
<!-- Generator: Adobe Illustrator 26.0.1, SVG Export Plug-In . SVG Version: 6.00 Build 0)  -->
<svg version="1.1" id="Layer_1" xmlns="http://www.w3.org/2000/svg" xmlns:xlink="http://www.w3.org/1999/xlink" x="0px" y="0px"
	 viewBox="0 0 1080 1080" style="enable-background:new 0 0 1080 1080;" xml:space="preserve">
<style type="text/css">
	.st0{fill:#FFFFFF;}
	.st1{opacity:0.2;fill:url(#SVGID_1_);}
	.st2{fill:url(#SVGID_00000003096863211034372610000011561750393576749737_);}
	.st3{fill:url(#SVGID_00000168077044644464919660000005523793262074217369_);}
	.st4{fill:url(#SVGID_00000167397110199751804160000007602925942795785100_);}
	.st5{fill:url(#SVGID_00000176008566589412750170000008031726637602117284_);}
	.st6{fill:url(#SVGID_00000133492605406345945380000005628474178627511741_);}
	.st7{fill:url(#SVGID_00000183218144283109092840000016220555402193832326_);}
	.st8{fill:url(#SVGID_00000002369579225478925100000017161860386759693232_);}
	.st9{fill:url(#SVGID_00000000210673864789698700000005519765224054536072_);}
	.st10{fill:url(#SVGID_00000003808582489028968560000017685842421878729895_);}
	.st11{fill:url(#SVGID_00000029007979810932360770000009367269871872935306_);}
	.st12{fill:url(#SVGID_00000103229708276867834110000009856439135669798039_);}
	.st13{fill:#FD56D2;}
	.st14{fill:url(#SVGID_00000009561846015856007340000002211446284065544366_);}
	.st15{fill:url(#SVGID_00000119795816482985660930000005370388571610723718_);}
	.st16{fill:url(#SVGID_00000150820304328338269980000001585062169312187029_);}
	.st17{fill:url(#SVGID_00000047781797932854782710000002986326112932671365_);}
	.st18{fill:url(#SVGID_00000183951801981554798930000014983273123007478675_);}
	.st19{fill:url(#SVGID_00000152242796049258682630000010655007702487049890_);}
	.st20{fill:url(#SVGID_00000160160430574688037910000006672421361781869236_);}
	.st21{fill:url(#SVGID_00000096026259508874608390000015834460652499513240_);}
	.st22{fill:url(#SVGID_00000129166172125513081030000004390035585214617239_);}
	.st23{fill:url(#SVGID_00000138536209500662686820000003693523839277119379_);}
	.st24{fill:url(#SVGID_00000170996925302440194000000009958817272748264382_);}
	.st25{fill:url(#SVGID_00000116934984445503412860000010779724777014349479_);}
	.st26{fill:url(#SVGID_00000136398646952705735110000016989553328050475392_);}
	.st27{fill:url(#SVGID_00000104706934726891463900000004048270267542303877_);}
	.st28{fill:url(#SVGID_00000152229403799400275970000008223380731145125567_);}
	.st29{fill:url(#SVGID_00000023985070692940824540000001684780292797369248_);}
	.st30{fill:url(#SVGID_00000122705489373852751440000010129786211402519683_);}
	.st31{fill:url(#SVGID_00000056393225846654041420000008117855149035345075_);}
	.st32{fill:url(#SVGID_00000034802428584472740640000015792103725497319330_);}
	.st33{fill:url(#SVGID_00000145052390799383487450000014416265449657570985_);}
	.st34{fill:url(#SVGID_00000005267995524734373650000016629455271460461203_);}
	.st35{fill:url(#SVGID_00000175318440178873880480000010893966099303608504_);}
	.st36{fill:url(#SVGID_00000127045963263448468300000006617053347620823969_);}
	.st37{fill:url(#SVGID_00000087392435021862714710000007865727721509820319_);}
	.st38{fill:url(#SVGID_00000062874665488156001030000014654155424866894213_);}
	.st39{fill:url(#SVGID_00000179644445541675295810000016694585230176548993_);}
	.st40{fill:url(#SVGID_00000176750317333526264090000014386691850019735429_);}
	.st41{fill:url(#SVGID_00000106850900790022900110000001235792552497193644_);}
	.st42{fill:url(#SVGID_00000177464227590115716430000002827938010484918966_);}
	.st43{fill:url(#SVGID_00000150808038537918233980000001083674697890108861_);}
	.st44{fill:url(#SVGID_00000160164090660396318550000003192608200761152405_);}
	.st45{fill:url(#SVGID_00000058583299942053013740000006117520835501538947_);}
	.st46{fill:url(#SVGID_00000172422558801192765210000003981828377311276479_);}
	.st47{fill:url(#SVGID_00000153678797273432385910000013798813232945023874_);}
	.st48{fill:url(#SVGID_00000095326258611110175320000012522163620207072670_);}
	.st49{fill:url(#SVGID_00000101094322340116169230000005519968820310740669_);}
	.st50{fill:url(#SVGID_00000180356624485964209110000000205599002570861745_);}
	.st51{fill:url(#SVGID_00000183248241414877830680000018045287165384108188_);}
	.st52{fill:url(#SVGID_00000045577228150959093440000005446510401192345989_);}
	.st53{fill:url(#SVGID_00000065062809453951437320000003246491738490657715_);}
	.st54{fill:url(#SVGID_00000096763410739714040460000009786116737229053591_);}
	.st55{fill:url(#SVGID_00000154383512044040835320000007302495650360231561_);}
	.st56{fill:url(#SVGID_00000100376379447266839200000017025444426919562886_);}
	.st57{fill:url(#SVGID_00000029767937059456185710000003185931160609132698_);}
	.st58{fill:url(#SVGID_00000005966871436403816980000015210693710388788896_);}
	.st59{fill:url(#SVGID_00000108270972309843830700000010106276980009754047_);}
	.st60{fill:url(#SVGID_00000017489883547765061280000004333113029070236863_);}
	.st61{fill:url(#SVGID_00000121262971448294842870000003517066354422028700_);}
	.st62{fill:url(#SVGID_00000004547656278036617330000009152163968514699443_);}
	.st63{fill:url(#SVGID_00000113336136208583351260000002983056575534546087_);}
	.st64{fill:url(#SVGID_00000074415629061425355690000000083490631064262275_);}
	.st65{fill:url(#SVGID_00000077324788032884809710000014098006110724084885_);}
	.st66{fill:url(#SVGID_00000010992014212789376450000013046006381097132443_);}
	.st67{fill:url(#SVGID_00000132065235258977604080000008672362798235502523_);}
	.st68{fill:url(#SVGID_00000104675490001179800530000003459055749216814997_);}
	.st69{fill:url(#SVGID_00000107582394629693388270000011709450846527228313_);}
	.st70{fill:url(#SVGID_00000099621222559604602920000005181128280904213146_);}
	.st71{fill:url(#SVGID_00000057150222135739216810000014760929511117164464_);}
	.st72{fill:url(#SVGID_00000036248480495674163630000017565119579583196842_);}
	.st73{fill:url(#SVGID_00000099633843633178964070000009187674301293079693_);}
	.st74{fill:url(#SVGID_00000002351822945345202060000011092624799717165219_);}
	.st75{fill:url(#SVGID_00000112627287021978909580000011576621915869378493_);}
	.st76{fill:url(#SVGID_00000125584037259854968060000001077419285047256450_);}
	.st77{fill:url(#SVGID_00000113339562807617878090000004818751033298364066_);}
	.st78{fill:url(#SVGID_00000168097122813663735940000001807171976606815878_);}
	.st79{fill:url(#SVGID_00000089548921911031379830000003372812683023809444_);}
	.st80{fill:url(#SVGID_00000047019710523691932980000016447297957104958104_);}
	.st81{fill:url(#SVGID_00000047019236896897458510000000164507213438555029_);}
	.st82{fill:url(#SVGID_00000166659431264124573880000000362374342411020711_);}
	.st83{fill:url(#SVGID_00000043458409619210169960000001936809413493828279_);}
	.st84{fill:url(#SVGID_00000133491036630335438920000005145691672978737292_);}
	.st85{fill:url(#SVGID_00000180358365438158326190000016359648368521622676_);}
	.st86{fill:url(#SVGID_00000153666612428391500510000006554358233987003273_);}
	.st87{fill:url(#SVGID_00000013890665186502603910000000330730275288983169_);}
	.st88{fill:url(#SVGID_00000002342334480165302390000006741913014128867754_);}
	.st89{fill:url(#SVGID_00000146498194270164577700000010807772930301492910_);}
	.st90{fill:url(#SVGID_00000134212850703156372100000005762265901825838239_);}
	.st91{fill:url(#SVGID_00000052075339577631251510000015399253758078480000_);}
	.st92{fill:url(#SVGID_00000057838036604398869660000013624954869060909244_);}
	.st93{fill:url(#SVGID_00000145050937336830981960000012735560459402458766_);}
	.st94{fill:url(#SVGID_00000061440229857171581590000015113506807134428335_);}
	.st95{fill:url(#SVGID_00000173127889459048282120000001306192607991330190_);}
	.st96{fill:url(#SVGID_00000057119175896299173390000006519305938764471473_);}
	.st97{fill:url(#SVGID_00000124133226089130063630000009149100759507330468_);}
	.st98{fill:url(#SVGID_00000019668468488060062200000008124591043316001458_);}
	.st99{fill:url(#SVGID_00000115485034207292980870000010815971785214579385_);}
	.st100{fill:url(#SVGID_00000083051201765546642860000017259003667537614510_);}
	.st101{fill:url(#SVGID_00000154406642227250423340000000671926460694395045_);}
	.st102{fill:url(#SVGID_00000178174380193989529260000005780203268990612908_);}
	.st103{fill:url(#SVGID_00000023246850901716504870000003908234340296222372_);}
	.st104{fill:url(#SVGID_00000107559762777656967430000001030619307249746359_);}
	.st105{fill:url(#SVGID_00000003785261867635726530000001200280217616265620_);}
	.st106{fill:url(#SVGID_00000125578910717213057620000004002297656805605022_);}
	.st107{fill:url(#SVGID_00000106136068844123271190000016813896301077311663_);}
	.st108{fill:url(#SVGID_00000164501338490231131390000008572136136891571856_);}
	.st109{fill:url(#SVGID_00000140729997058166524270000007236515685150795934_);}
	.st110{fill:url(#SVGID_00000104680946852943176640000012369308631944313274_);}
	.st111{fill:url(#SVGID_00000021085417824382022400000000451757281451977120_);}
	.st112{fill:url(#SVGID_00000088103231951748114480000003175332389605324933_);}
	.st113{fill:url(#SVGID_00000025444740039078827170000014390311047911817122_);}
	.st114{fill:url(#SVGID_00000091693783232461849520000013580258565398340029_);}
	.st115{fill:url(#SVGID_00000043424818298065829040000008169863751011038878_);}
	.st116{fill:url(#SVGID_00000062878068353231768860000012011787291862501564_);}
	.st117{fill:url(#SVGID_00000156574129914784968270000004816102405565246126_);}
	.st118{fill:url(#SVGID_00000098214584085234715790000011121232975582329754_);}
	.st119{fill:url(#SVGID_00000040548268658476451910000012383259547022278063_);}
	.st120{fill:url(#SVGID_00000167373309224492560830000002387800886709307834_);}
	.st121{fill:url(#SVGID_00000141454222781658109430000009199709384289193102_);}
	.st122{fill:url(#SVGID_00000054965886371797182940000013961475438161710723_);}
	.st123{fill:url(#SVGID_00000005949174071934598380000011894411209783637889_);}
	.st124{fill:url(#SVGID_00000003805688526684640260000015062475313644481432_);}
	.st125{fill:url(#SVGID_00000152981216380555437610000015187817845116146075_);}
	.st126{fill:url(#SVGID_00000168835899679804243160000017582248247239527312_);}
	.st127{fill:url(#SVGID_00000041975021863287680250000013189173666321273226_);}
	.st128{fill:url(#SVGID_00000081635438912544756050000005951387044848299962_);}
	.st129{fill:url(#SVGID_00000070798218097572270940000012816308469517576336_);}
	.st130{fill:url(#SVGID_00000111901205868871890830000007702261347307133059_);}
	.st131{fill:url(#SVGID_00000175297036074749992450000004025882987278545323_);}
	.st132{fill:url(#SVGID_00000145054153472253716870000007946967100086564483_);}
	.st133{fill:url(#SVGID_00000047775068475783275110000009511472079615587985_);}
	.st134{fill:url(#SVGID_00000031178415676570165330000000190052665916544422_);}
	.st135{fill:url(#SVGID_00000049192650900168656050000012380169583361512084_);}
	.st136{fill:url(#SVGID_00000057145583494857200770000013950218690923687574_);}
	.st137{fill:#EF0A0A;}
	.st138{fill:url(#SVGID_00000112627918106135849200000011995009438748904379_);}
	.st139{fill:url(#SVGID_00000097472546082625306870000004159986415946184587_);}
	.st140{fill:url(#SVGID_00000103957019346072045470000005860259489852327350_);}
	.st141{fill:url(#SVGID_00000069380267959910476570000004232141889157524904_);}
	.st142{fill:url(#SVGID_00000112631457686603874960000012122404639225049736_);}
	.st143{fill:url(#SVGID_00000173867915534944630240000002899674511355909285_);}
	.st144{fill:url(#SVGID_00000000189185456832889170000008538600568164804259_);}
	.st145{fill:url(#SVGID_00000006700006625959918010000011059804282294932129_);}
	.st146{fill:url(#SVGID_00000014628330781815437160000003945199106579193741_);}
	.st147{fill:url(#SVGID_00000152974975186480939730000007127397773094753425_);}
	.st148{fill:url(#SVGID_00000165920503063201081370000013364717819838390192_);}
	.st149{fill:url(#SVGID_00000127750038812898885860000015607581794010050484_);}
	.st150{fill:none;stroke:#000000;stroke-miterlimit:10;}
	.st151{fill:#58167D;}
	.st152{fill:url(#SVGID_00000085212395647358937770000002465061905622120355_);}
	.st153{fill:url(#SVGID_00000074435946794634854220000014976656720831020675_);}
	.st154{fill:#7F24BA;}
	.st155{fill:#EA1FCE;}
	.st156{fill:#F950D5;}
	.st157{fill:url(#SVGID_00000057106309553572095370000011910829831128313791_);}
	.st158{fill:url(#SVGID_00000121962160830948035060000005714212906275264146_);}
	.st159{fill:url(#SVGID_00000106870242341562739900000008802273585550644608_);}
	.st160{fill:url(#SVGID_00000137119155645299411790000017528468506123553983_);}
	.st161{fill:url(#SVGID_00000131326183108290422660000001814016690954250914_);}
	.st162{fill:url(#SVGID_00000138550986419556663520000003890713708868373641_);}
	.st163{fill:url(#SVGID_00000150096172063206077290000004125746254596307587_);}
	.st164{fill:url(#SVGID_00000027564521015006520450000009950436447041464249_);}
	.st165{fill:url(#SVGID_00000143595443737500537920000003895183319260692870_);}
	.st166{fill:url(#SVGID_00000133496022651624678650000015436319534309021370_);}
	.st167{fill:url(#SVGID_00000101091687312784856080000004840488450575130303_);}
	.st168{fill:url(#SVGID_00000098182020988255016430000017769964411864511886_);}
	.st169{fill:url(#SVGID_00000121961292144706092320000010501498898991737532_);}
	.st170{fill:url(#SVGID_00000111191756903254554170000002118759833603192242_);}
	.st171{fill:url(#SVGID_00000057853302483337177380000001056233743581571462_);}
	.st172{fill:url(#SVGID_00000145046627494489476840000007438190984092825505_);}
	.st173{fill:url(#SVGID_00000127019372087246886300000007966514800818002592_);}
	.st174{fill:url(#SVGID_00000122722981410053802420000003124825568130172854_);}
	.st175{opacity:0.2;fill:url(#SVGID_00000097488107056733975740000008694203144694942378_);}
	.st176{fill:url(#SVGID_00000114037030507265361920000012563405349815113887_);}
	.st177{fill:url(#SVGID_00000165224012120977446790000003322399414113364902_);}
	.st178{fill:url(#SVGID_00000032613698725559372780000004942749561811326114_);}
	.st179{fill:url(#SVGID_00000168100404274656214520000009083494146008133004_);}
	.st180{fill:url(#SVGID_00000055690915974447665900000000682635949939225742_);}
	.st181{fill:url(#SVGID_00000000218665802880728640000000815590413593481656_);}
	.st182{fill:url(#SVGID_00000075877913495479520190000005393828694249978764_);}
	.st183{fill:url(#SVGID_00000072282728619384261040000016870734573051192975_);}
	.st184{fill:url(#SVGID_00000157296256268288731950000015174997770933154988_);}
	.st185{fill:url(#SVGID_00000013190131718294477940000018360549210339484309_);}
	.st186{fill:url(#SVGID_00000051365126943380159670000004192756540733147559_);}
	.st187{fill:url(#SVGID_00000156582231239368870040000006494748142438777009_);}
	.st188{fill:url(#SVGID_00000128448131628866486620000011610450765465272453_);}
	.st189{fill:url(#SVGID_00000078035920407410291970000014561903328589110674_);}
	.st190{fill:url(#SVGID_00000013159977260215674550000004382135060219233722_);}
	.st191{fill:url(#SVGID_00000065042335217482283320000005927168518715315647_);}
	.st192{fill:url(#SVGID_00000145757822664767769400000001361123989995364230_);}
	.st193{fill:url(#SVGID_00000159470975163731588800000000368867643047180183_);}
	.st194{fill:url(#SVGID_00000010291187136022765050000012219961781056453512_);}
	.st195{fill:url(#SVGID_00000031917376612083596740000004347669385638159020_);}
	.st196{fill:url(#SVGID_00000126296572919484269990000006141560597650690742_);}
	.st197{fill:url(#SVGID_00000162339132443364264370000004533640606274125755_);}
	.st198{fill:url(#SVGID_00000014597438170584414790000007499070756604527509_);}
	.st199{fill:url(#SVGID_00000098186659258719655910000006620489975005760950_);}
	.st200{fill:url(#SVGID_00000058561031095404239300000000509333173357990029_);}
	.st201{fill:url(#SVGID_00000055669363866061383400000012398033757736316351_);}
	.st202{fill:url(#SVGID_00000110450509800177766840000012973714825613590962_);}
	.st203{fill:url(#SVGID_00000152971183979858862590000000439113430543200443_);}
	.st204{fill:url(#SVGID_00000039818208826352567350000001491927223288384128_);}
	.st205{fill:url(#SVGID_00000064343128980549138280000000630515818187125907_);}
	.st206{fill:url(#SVGID_00000092447303672296120800000014178446163782266806_);}
	.st207{fill:url(#SVGID_00000054256139128003664780000003598099865267256227_);}
	.st208{fill:url(#SVGID_00000023970470122091983090000010997222429643298971_);}
	.st209{fill:url(#SVGID_00000149373135454717547700000004470581281794655625_);}
	.st210{fill:url(#SVGID_00000160184446606541260470000015375062981848624271_);}
	.st211{fill:url(#SVGID_00000104690201134557887860000012625580468196541586_);}
	.st212{fill:url(#SVGID_00000180347828133874654670000013214588056779944844_);}
	.st213{fill:url(#SVGID_00000031923064276774871440000014870293442792684219_);}
	.st214{fill:url(#SVGID_00000090991938359907100950000010423243595120188592_);}
	.st215{fill:url(#SVGID_00000147210494602023622490000013602158040814197649_);}
	.st216{fill:url(#SVGID_00000054970033424150604450000000947140468952920208_);}
	.st217{fill:url(#SVGID_00000158013639971225740540000007282797012191857327_);}
	.st218{fill:url(#SVGID_00000090296085585336918280000017082626938782436224_);}
	.st219{fill:url(#SVGID_00000067957587451685881410000018370774269777644166_);}
	.st220{fill:url(#SVGID_00000088120003990826481360000012489188666646656936_);}
	.st221{fill:url(#SVGID_00000078007340097189183580000000088478339203583153_);}
	.st222{fill:url(#SVGID_00000152255333237597581750000010648287607541011591_);}
	.st223{fill:url(#SVGID_00000173136546453986791630000004314663438978303368_);}
	.st224{fill:url(#SVGID_00000103973267373162627230000015458513067314273441_);}
	.st225{fill:url(#SVGID_00000059269776876808684010000000430234313171704233_);}
	.st226{fill:url(#SVGID_00000011740273533101449840000003626514730062974093_);}
	.st227{fill:url(#SVGID_00000170985755332697015800000000906122894186354083_);}
	.st228{fill:url(#SVGID_00000067928517799529181120000008003204607782029749_);}
	.st229{fill:url(#SVGID_00000063601895445727061390000003756929416027992205_);}
	.st230{fill:url(#SVGID_00000066496113735728314460000006165991769793234060_);}
	.st231{fill:url(#SVGID_00000162320518564855914810000003365261644304535957_);}
	.st232{fill:url(#SVGID_00000109006735669777687660000008248460979005200259_);}
	.st233{fill:url(#SVGID_00000101083836108829332700000006185774136272723091_);}
	.st234{fill:url(#SVGID_00000071545945425573148640000009670549932676849336_);}
	.st235{fill:url(#SVGID_00000057117105331000529860000012349480432152454583_);}
	.st236{fill:url(#SVGID_00000168077969549540450170000008077307679058593667_);}
	.st237{fill:url(#SVGID_00000041273870305865974400000002850830709204954278_);}
	.st238{fill:url(#SVGID_00000060007711210894960600000014408656459146339717_);}
	.st239{fill:url(#SVGID_00000073698701272141840110000008334040543122894738_);}
	.st240{fill:url(#SVGID_00000107570664702627682660000005772755582780745358_);}
	.st241{fill:url(#SVGID_00000071552577778889779690000009346156964792166805_);}
	.st242{fill:url(#SVGID_00000050620592146112227300000009445476942998408089_);}
	.st243{fill:url(#SVGID_00000086680859383310593920000006938336923406311828_);}
	.st244{fill:url(#SVGID_00000134213742547543707120000015787819559135537844_);}
	.st245{fill:url(#SVGID_00000147914219945776137450000012729817481982026417_);}
	.st246{fill:url(#SVGID_00000054240590898693988530000002666160251084304564_);}
	.st247{fill:url(#SVGID_00000078022749148648357800000015085663607310982817_);}
	.st248{fill:url(#SVGID_00000121964795179234481850000014675211791359562923_);}
	.st249{fill:url(#SVGID_00000146477361150875825430000009302464373360181123_);}
	.st250{fill:url(#SVGID_00000097463510433391175820000000950277864674473651_);}
	.st251{fill:url(#SVGID_00000150096661250915829520000009058883815148227770_);}
	.st252{fill:url(#SVGID_00000076592005707723258370000015766940185115712408_);}
	.st253{fill:url(#SVGID_00000127736840392961806110000014900758873811433390_);}
</style>
<g>
	<g>
		<linearGradient id="SVGID_1_" gradientUnits="userSpaceOnUse" x1="798.4664" y1="650.2385" x2="291.5096" y2="552.1178">
			<stop  offset="0" style="stop-color:#58167D"/>
			<stop  offset="1" style="stop-color:#7F24BA"/>
		</linearGradient>
		<path style="fill:url(#SVGID_1_);" d="M395.1,548.3c-5-3.4-13.8-6.5-26.3-9.4l-0.7-0.1c-5.3-1.5-9.1-3.2-11.4-5.2
			c-2.9-2.7-4.4-6.8-4.4-12.4c0-5.6,2-10.1,6.1-13.6c3.6-3.1,8.5-4.6,14.8-4.6c2,0,4.1,0.2,6.3,0.7c1.9,0.4,4.1,1.2,6.5,2.4
			l12.4-14.3c-4.8-2.4-9.3-4-13.3-4.9c-3.7-0.7-7.4-1.1-11.1-1.1h-0.9c-12.5,0-22.7,3.4-30.6,10.1c-8,6.8-12,15.2-12,25.4
			c0.1,10,3.4,17.9,10,23.8c4.8,4.3,11.7,7.7,20.9,10.2l0.3,0.1l0.9,0.2c8,1.9,13.5,3.7,16.5,5.6c4.8,3.1,7.1,7.7,7.1,13.9v0.7
			c0,1.6-0.2,3.2-0.6,4.7c-1.4,5.2-5.3,9.2-11.7,11.8c-6.1,2.5-13.9,3.8-23.3,3.8c-8,0-15.1-0.8-21-2.3c-9.3-2.5-16.5-6.5-21.4-12
			c-4.9-5.4-7.3-12.1-7.3-20.1c0-3.8,0.3-7.5,0.8-11c0.5-3.4,1.4-7.3,2.8-11.6l-18-3.9c-1.7,4.8-2.8,9.3-3.3,13.5
			c-0.5,4.1-0.8,8.4-0.8,13v0.3c0,11.6,3.7,21.6,11.3,29.9c7.6,8.5,18.4,14.6,32.2,18.2c8,2.1,16.4,3.2,25,3.2
			c12.9-0.1,24-1.9,33.2-5.6c12.5-5.1,20.1-13,22.8-23.7c0.7-2.7,1.1-5.7,1.1-9C408.1,563.1,403.8,554.2,395.1,548.3z M343.3,628.1
			c-0.6-1.3-1.4-2.5-2.4-3.5c-1-1-2.2-1.8-3.5-2.4c-1.3-0.6-2.8-0.9-4.2-0.9c-1.5,0-2.9,0.3-4.2,0.9c-1.3,0.6-2.5,1.3-3.5,2.4
			c-1,1-1.8,2.2-2.4,3.5c-0.6,1.3-0.9,2.8-0.9,4.3c0,1.5,0.3,3,0.9,4.3c0.6,1.3,1.4,2.4,2.4,3.4c1,1,2.2,1.7,3.5,2.3
			c1.3,0.6,2.7,0.9,4.2,0.9c1.5,0,2.9-0.3,4.2-0.9c1.3-0.6,2.5-1.3,3.5-2.3c1-1,1.8-2.1,2.4-3.4c0.6-1.3,0.9-2.7,0.9-4.3
			C344.2,630.9,343.9,629.5,343.3,628.1z M369.6,628.1c-0.6-1.3-1.3-2.5-2.3-3.5c-1-1-2.1-1.8-3.4-2.4c-1.3-0.6-2.7-0.9-4.2-0.9
			c-1.5,0-3,0.3-4.3,0.9c-1.3,0.6-2.5,1.3-3.5,2.4c-1,1-1.8,2.2-2.4,3.5c-0.6,1.3-0.9,2.8-0.9,4.3c0,1.5,0.3,3,0.9,4.3
			c0.6,1.3,1.4,2.4,2.4,3.4c1,1,2.2,1.7,3.5,2.3c1.3,0.6,2.8,0.9,4.3,0.9c1.5,0,2.9-0.3,4.2-0.9c1.3-0.6,2.4-1.3,3.4-2.3
			c1-1,1.8-2.1,2.3-3.4c0.6-1.3,0.9-2.7,0.9-4.3C370.5,630.9,370.2,629.5,369.6,628.1z"/>
		
			<linearGradient id="SVGID_00000071544185291216456990000016846860313664916914_" gradientUnits="userSpaceOnUse" x1="801.6871" y1="621.8523" x2="304.3602" y2="525.5955">
			<stop  offset="0" style="stop-color:#58167D"/>
			<stop  offset="1" style="stop-color:#7F24BA"/>
		</linearGradient>
		<path style="fill:url(#SVGID_00000071544185291216456990000016846860313664916914_);" d="M506.4,568.6l-0.9-56.5
			c0-8.6-5.3-11.3-15.9-15.9c-7.2-3.2-12.9-1.2-22-1.2l-9.7,0.9c-16.1,0.1-14-2.6-23.2,7.1c-8.3,8.9-9.4,17.8-9.4,32.9
			c0,14.1,2.8,21.1,11.5,30c9.5,9.9,18.4,15.3,33.8,15.3l20.9,2.1c-0.3,3.2-2.5,11.6-4.7,15.9c-1.6,3-3.9,8-6.8,11.5
			c-2.9,3.4-3.8,2.7-9.1,7.6l7.6,6.8c5.4-5,6.6-7.7,10-11.7c3.7-4.4,2.6-6.3,4.7-10.3c3.6-6,7-10.5,8.2-16.4l190.2-0.6v-17.3H506.4z
			 M491.1,571.2l-16.8,1.2h-3.2c-9.6,0-20.6-2.5-25.9-7.9c-5.6-5.8-10.6-16.8-10.6-27c0-11.3,0.5-19.8,6-25.6
			c4.9-5.2,15.1-12.9,23.9-12.9l5.4-1.5c5.4,0,14.5,3.9,18.5,5.6c3.1,1.3,6.8,5.2,6.8,7L491.1,571.2z"/>
		
			<linearGradient id="SVGID_00000154389730929300597490000010918128082830757022_" gradientUnits="userSpaceOnUse" x1="813.9468" y1="570.2092" x2="307.0134" y2="472.093">
			<stop  offset="0" style="stop-color:#58167D"/>
			<stop  offset="1" style="stop-color:#7F24BA"/>
		</linearGradient>
		<path style="fill:url(#SVGID_00000154389730929300597490000010918128082830757022_);" d="M785,500.3c-9.2-9.7-21.9-14.6-38-14.6
			c-16,0-28.7,4.9-37.9,14.7c-8.3,8.9-12.5,20.9-12.5,36c0,14.2,3.5,24.9,10.6,32.2H519V586h227.9c15.5,0,28-4.9,37.5-14.7
			c8.7-8.9,13.1-20.5,13.1-34.8C797.5,521.2,793.3,509.2,785,500.3z M767.4,560.7c-5.2,5.3-12,7.9-20.5,7.9c-8.2,0-15-2.7-20.2-8.2
			c-5.6-5.8-8.5-13.8-8.5-24c0-11.3,2.8-19.8,8.4-25.7c4.8-5.2,11.6-7.8,20.4-7.8c8.9,0,15.8,2.6,20.6,7.8
			c5.5,5.7,8.3,14.3,8.3,25.7C775.8,546.9,773,554.9,767.4,560.7z"/>
		
			<linearGradient id="SVGID_00000145776706575834211920000005369474255843730367_" gradientUnits="userSpaceOnUse" x1="829.4816" y1="489.968" x2="322.5315" y2="391.8486">
			<stop  offset="0" style="stop-color:#58167D"/>
			<stop  offset="1" style="stop-color:#7F24BA"/>
		</linearGradient>
		<path style="fill:url(#SVGID_00000145776706575834211920000005369474255843730367_);" d="M740.1,470.7c0,1.5-0.3,3-0.9,4.3
			c-0.6,1.3-1.4,2.5-2.4,3.4c-1,1-2.2,1.7-3.5,2.3c-1.3,0.6-2.8,0.9-4.2,0.9c-1.5,0-2.9-0.3-4.2-0.9c-1.3-0.6-2.5-1.3-3.5-2.3
			c-1-1-1.8-2.1-2.4-3.4c-0.6-1.3-0.9-2.7-0.9-4.3c0-1.6,0.3-3,0.9-4.3c0.6-1.4,1.4-2.5,2.4-3.5c1-1,2.2-1.8,3.5-2.4
			c1.3-0.6,2.7-0.9,4.2-0.9c1.5,0,2.9,0.3,4.2,0.9c1.4,0.6,2.5,1.4,3.5,2.4c1,1,1.8,2.2,2.4,3.5
			C739.8,467.7,740.1,469.1,740.1,470.7z"/>
		
			<linearGradient id="SVGID_00000070108246894999835890000005135395110957002383_" gradientUnits="userSpaceOnUse" x1="834.3112" y1="465.0146" x2="327.3612" y2="366.8952">
			<stop  offset="0" style="stop-color:#58167D"/>
			<stop  offset="1" style="stop-color:#7F24BA"/>
		</linearGradient>
		<path style="fill:url(#SVGID_00000070108246894999835890000005135395110957002383_);" d="M755.6,447.8c0,1.5-0.3,3-0.9,4.3
			c-0.6,1.3-1.4,2.5-2.4,3.4c-1,1-2.2,1.7-3.5,2.3c-1.3,0.6-2.8,0.9-4.2,0.9c-1.5,0-2.9-0.3-4.2-0.9c-1.3-0.6-2.5-1.3-3.5-2.3
			c-1-1-1.8-2.1-2.4-3.4c-0.6-1.3-0.9-2.7-0.9-4.3c0-1.6,0.3-3,0.9-4.3c0.6-1.4,1.4-2.5,2.4-3.5c1-1,2.2-1.8,3.5-2.4
			c1.3-0.6,2.7-0.9,4.2-0.9c1.5,0,2.9,0.3,4.2,0.9c1.4,0.6,2.5,1.4,3.5,2.4c1,1,1.8,2.2,2.4,3.5
			C755.3,444.8,755.6,446.2,755.6,447.8z"/>
		
			<linearGradient id="SVGID_00000150099514748761958850000008650147571802825650_" gradientUnits="userSpaceOnUse" x1="830.6718" y1="483.8185" x2="323.7217" y2="385.6991">
			<stop  offset="0" style="stop-color:#58167D"/>
			<stop  offset="1" style="stop-color:#7F24BA"/>
		</linearGradient>
		<path style="fill:url(#SVGID_00000150099514748761958850000008650147571802825650_);" d="M773.1,470.7c0,1.5-0.3,3-0.9,4.3
			c-0.6,1.3-1.4,2.5-2.4,3.4c-1,1-2.2,1.7-3.5,2.3c-1.3,0.6-2.8,0.9-4.2,0.9c-1.5,0-2.9-0.3-4.2-0.9c-1.3-0.6-2.5-1.3-3.5-2.3
			c-1-1-1.8-2.1-2.4-3.4c-0.6-1.3-0.9-2.7-0.9-4.3c0-1.6,0.3-3,0.9-4.3c0.6-1.4,1.4-2.5,2.4-3.5c1-1,2.2-1.8,3.5-2.4
			c1.3-0.6,2.7-0.9,4.2-0.9c1.5,0,2.9,0.3,4.2,0.9c1.4,0.6,2.5,1.4,3.5,2.4c1,1,1.8,2.2,2.4,3.5
			C772.8,467.7,773.1,469.1,773.1,470.7z"/>
	</g>
	
		<linearGradient id="SVGID_00000122693924540744287860000017501061947273524133_" gradientUnits="userSpaceOnUse" x1="512.77" y1="587.7557" x2="432.0716" y2="503.9706">
		<stop  offset="0" style="stop-color:#F950D5"/>
		<stop  offset="1" style="stop-color:#EA1FCE"/>
	</linearGradient>
	<path style="fill:url(#SVGID_00000122693924540744287860000017501061947273524133_);" d="M510.1,568.6v-58.2
		c0-8.6-5.3-15.3-15.8-19.8c-7.2-3.2-15.4-4.8-24.5-4.8h-0.3c-16.1,0.1-28.7,4.9-37.9,14.6c-8.3,8.9-12.5,20.9-12.5,36
		c0,14.1,4.3,25.7,13,34.6c9.5,9.9,21.9,14.9,37.3,14.9H487c-0.3,3.2-1.6,6.9-3.8,11.2c-1.6,3-3.9,6.2-6.7,9.7
		c-2.9,3.4-7,7.6-12.3,12.5l15.1,10.7c5.4-5,9.7-9.5,13.1-13.5c3.7-4.4,6.6-8.6,8.6-12.6c3.6-6,6-12,7.3-17.9
		C510.3,577.2,510.1,568.6,510.1,568.6z M488.5,568.8h-17.1v-0.1c-9.6,0-17-2.7-22.2-8.1c-5.6-5.8-8.5-13.8-8.5-24
		c0-11.3,2.7-19.8,8.2-25.6c4.9-5.2,11.7-7.8,20.5-7.8h0.3c5.4,0,10.1,0.9,14.1,2.6c3.1,1.3,4.6,3,4.6,4.8V568.8z"/>
</g>
</svg>
