<svg xmlns="http://www.w3.org/2000/svg" width="100" height="100" viewBox="0 0 100 100">
  <g id="Group_43179" data-name="Group 43179" transform="translate(-13.375 -13.694)" opacity="0.5">
    <path id="Path_78884" data-name="Path 78884" d="M42.771,109.546C30.029,103.2,20.965,93.583,16.228,80.106a48.652,48.652,0,0,1-.5-31.372,49.914,49.914,0,0,1,95.93,2.21,48.879,48.879,0,0,1-3.235,34.316c-5.238,10.975-13.538,18.91-24.489,24.286a57.649,57.649,0,0,1-20.705,4.148C51.366,113.693,42.386,109.546,42.771,109.546ZM63.4,17.83A45.857,45.857,0,1,0,109.167,63.7,45.931,45.931,0,0,0,63.4,17.83Z" transform="translate(0 0)" fill="#999fac"/>
    <path id="Path_78886" data-name="Path 78886" d="M62.965,102.472a39.53,39.53,0,1,1,39.305,39.595A39.6,39.6,0,0,1,62.965,102.472Zm62.948,26.471c-.125-.157-.2-.273-.3-.369-3.209-3.221-6.435-6.426-9.616-9.674-.527-.539-30.1-29.888-33.1-32.912l-6.85-6.895c-10.927,11.663-12.964,32.6.3,47.181A35.174,35.174,0,0,0,125.913,128.942Zm3.052-3.145c11.358-12.144,12.894-34.037-1.56-48.449-14.382-14.34-36.163-12.742-48.3-1.323.184.2,5.349,5.382,7.709,7.806.491.5,29.294,29.054,32.578,32.353Z" transform="translate(-39.113 -38.771)" fill="#999fac"/>
    <g id="svgexport-10_11_" data-name="svgexport-10 (11)" transform="translate(-10.022 38.079)">
      <g id="Group_43880" data-name="Group 43880" transform="translate(53.02)">
        <g id="Group_43879" data-name="Group 43879">
          <path id="Path_78859" data-name="Path 78859" d="M93.6,42.246,91.317,13.418a3.6,3.6,0,0,0-3.575-3.312H83.224V9.9a9.9,9.9,0,1,0-19.8,0v.2H58.907a3.6,3.6,0,0,0-3.575,3.308L53.044,42.25a8.341,8.341,0,0,0,8.315,8.979h23.93A8.341,8.341,0,0,0,93.6,42.246ZM66.424,9.9a6.9,6.9,0,1,1,13.8,0v.2h-13.8ZM89.207,46.517a5.284,5.284,0,0,1-3.917,1.711H61.359a5.34,5.34,0,0,1-5.324-5.745l2.288-28.836a.588.588,0,0,1,.584-.541h4.518v3.7a1.5,1.5,0,1,0,3,0v-3.7h13.8v3.7a1.5,1.5,0,1,0,3,0v-3.7h4.518a.589.589,0,0,1,.584.545l2.287,28.828A5.287,5.287,0,0,1,89.207,46.517Z" transform="translate(-53.02)" fill="#999fac"/>
        </g>
      </g>
      <g id="Group_43882" data-name="Group 43882" transform="translate(66.127 25.006)">
        <g id="Group_43881" data-name="Group 43881">
          <path id="Path_78860" data-name="Path 78860" d="M198.007,250.332a1.5,1.5,0,0,0-2.121,0l-6.7,6.7-2.575-2.575a1.5,1.5,0,1,0-2.121,2.121l3.636,3.636a1.5,1.5,0,0,0,2.121,0l7.758-7.758A1.5,1.5,0,0,0,198.007,250.332Z" transform="translate(-184.052 -249.893)" fill="#999fac"/>
        </g>
      </g>
    </g>
  </g>
</svg>
