<svg xmlns="http://www.w3.org/2000/svg" width="20.655" height="27.54" viewBox="0 0 20.655 27.54">
  <g id="padlock" transform="translate(-5 -1)">
    <g id="Group_35" data-name="Group 35" transform="translate(5 1)">
      <path id="Path_114" data-name="Path 114" d="M23.073,12.188V8.746a7.746,7.746,0,1,0-15.491,0v3.443A2.536,2.536,0,0,0,5,14.77V25.958A2.589,2.589,0,0,0,7.582,28.54H23.073a2.589,2.589,0,0,0,2.582-2.582V14.77A2.536,2.536,0,0,0,23.073,12.188ZM9.3,8.746a6.024,6.024,0,1,1,12.049,0v3.443H9.3Zm6.885,12.737v1.893a.861.861,0,0,1-1.721,0V21.483a2.507,2.507,0,0,1-1.721-2.41,2.582,2.582,0,0,1,5.164,0A2.507,2.507,0,0,1,16.188,21.483Z" transform="translate(-5 -1)" fill="#363635"/>
    </g>
  </g>
</svg>
