<svg xmlns="http://www.w3.org/2000/svg" width="361" height="79.186" viewBox="0 0 361 79.186">
  <g id="Path_142" data-name="Path 142" fill="none">
    <path d="M20,0H341a20,20,0,0,1,20,20V79.186L0,78.31V20A20,20,0,0,1,20,0Z" stroke="none"/>
    <path d="M 20 2.000015258789062 C 15.19204711914062 2.000015258789062 10.67181396484375 3.872337341308594 7.2720947265625 7.272064208984375 C 3.872314453125 10.67183685302734 2 15.1920166015625 2 20.00001525878906 L 2 76.31521606445312 L 359 77.18079376220703 L 359 20.00001525878906 C 359 15.1920166015625 357.127685546875 10.67183685302734 353.7279052734375 7.272064208984375 C 350.3281860351562 3.872337341308594 345.8079528808594 2.000015258789062 341 2.000015258789062 L 20 2.000015258789062 M 20 1.52587890625e-05 L 341 1.52587890625e-05 C 352.0456848144531 1.52587890625e-05 361 8.954292297363281 361 20.00001525878906 L 361 79.18565368652344 L 0 78.31037902832031 L 0 20.00001525878906 C 0 8.954292297363281 8.954315185546875 1.52587890625e-05 20 1.52587890625e-05 Z" stroke="none" fill="#f8f7fc"/>
  </g>
</svg>
