<svg id="repeat" xmlns="http://www.w3.org/2000/svg" width="24.18" height="24.168" viewBox="0 0 24.18 24.168">
  <path id="Path_115" data-name="Path 115" d="M4.248,12.177A7.875,7.875,0,0,1,15.184,4.867L13.558,6.494,22.2,8.7,20,.052,18.321,1.73A12.077,12.077,0,0,0,.027,11.542L0,12.14l4.257.922Zm0,0" transform="translate(0 0)"/>
  <path id="Path_116" data-name="Path 116" d="M58.656,238.166A7.889,7.889,0,0,1,50.82,246a8,8,0,0,1-3.087-.617l1.569-1.57-8.646-2.222,2.223,8.645,1.7-1.7a12.229,12.229,0,0,0,6.242,1.711,12.082,12.082,0,0,0,12.055-11.5l.028-.6-4.248-.864Zm0,0" transform="translate(-38.736 -226.083)"/>
</svg>
