<svg id="user_1_" data-name="user (1)" xmlns="http://www.w3.org/2000/svg" width="34.733" height="38.802" viewBox="0 0 34.733 38.802">
  <g id="Group_15" data-name="Group 15">
    <g id="Group_14" data-name="Group 14" transform="translate(0)">
      <path id="Path_37" data-name="Path 37" d="M120.866,20.149a10.075,10.075,0,1,0-10.074-10.075A10.1,10.1,0,0,0,120.866,20.149Z" transform="translate(-103.497)" fill="#feb500"/>
      <path id="Path_38" data-name="Path 38" d="M58.823,255.171a9.393,9.393,0,0,0-1.012-1.848,12.522,12.522,0,0,0-8.667-5.455,1.854,1.854,0,0,0-1.276.308,10.739,10.739,0,0,1-12.67,0,1.651,1.651,0,0,0-1.276-.308,12.432,12.432,0,0,0-8.667,5.455,10.83,10.83,0,0,0-1.012,1.848.936.936,0,0,0,.044.836,17.549,17.549,0,0,0,1.188,1.76,16.72,16.72,0,0,0,2.024,2.288,26.385,26.385,0,0,0,2.024,1.76,20.062,20.062,0,0,0,23.933,0,19.348,19.348,0,0,0,2.024-1.76,20.315,20.315,0,0,0,2.024-2.288,15.422,15.422,0,0,0,1.188-1.76A.751.751,0,0,0,58.823,255.171Z" transform="translate(-24.165 -226.971)" fill="#feb500"/>
    </g>
  </g>
</svg>
