<svg xmlns="http://www.w3.org/2000/svg" width="28.431" height="28.431" viewBox="0 0 28.431 28.431">
  <g id="call" transform="translate(0)">
    <g id="Group_527" data-name="Group 527" transform="translate(0 0)">
      <g id="Group_526" data-name="Group 526" transform="translate(0 0)">
        <path id="Path_3977" data-name="Path 3977" d="M27.878,22.607l-3.152-2.1-2.8-1.868a1.241,1.241,0,0,0-1.667.271l-1.734,2.229a1.235,1.235,0,0,1-1.576.327,20.186,20.186,0,0,1-5.637-4.344,20.331,20.331,0,0,1-4.344-5.637,1.235,1.235,0,0,1,.327-1.576L9.523,8.173a1.241,1.241,0,0,0,.271-1.667L7.983,3.791,5.824.553A1.241,1.241,0,0,0,4.153.177L1.664,1.67A3.042,3.042,0,0,0,.282,3.458C-.4,5.94-.536,11.416,8.24,20.192s14.251,8.638,16.733,7.957a3.041,3.041,0,0,0,1.788-1.381l1.494-2.49A1.241,1.241,0,0,0,27.878,22.607Z" transform="translate(0 0)"/>
        <path id="Path_3978" data-name="Path 3978" d="M282.972,62.772a8.342,8.342,0,0,1,8.333,8.333.49.49,0,0,0,.98,0,9.324,9.324,0,0,0-9.313-9.313.49.49,0,0,0,0,.98Z" transform="translate(-266.796 -58.361)"/>
        <path id="Path_3979" data-name="Path 3979" d="M282.971,115.736a5.4,5.4,0,0,1,5.392,5.392.49.49,0,0,0,.98,0,6.38,6.38,0,0,0-6.372-6.372.49.49,0,1,0,0,.98Z" transform="translate(-266.795 -108.384)"/>
        <path id="Path_3980" data-name="Path 3980" d="M282.972,168.7a2.454,2.454,0,0,1,2.451,2.451.49.49,0,0,0,.98,0,3.435,3.435,0,0,0-3.431-3.431.49.49,0,1,0,0,.98Z" transform="translate(-266.796 -158.41)"/>
      </g>
    </g>
  </g>
</svg>
