<svg xmlns="http://www.w3.org/2000/svg" width="23" height="30" viewBox="0 0 23 30">
  <g id="term" transform="translate(0 -0.001)">
    <path id="Path_3957" data-name="Path 3957" d="M59,160.5V156H56v-1.5a2.5,2.5,0,0,0-5,0V156H48v14h6v-1H49V157h2v1h1v-1h3v1h1v-1h2v3.5ZM55,156H52v-1.5a1.5,1.5,0,0,1,3,0Zm0,0" transform="translate(-45 -142.499)" fill="#db650d"/>
    <path id="Path_3958" data-name="Path 3958" d="M19.5,29H1.5a.472.472,0,0,1-.5-.5V1.5A.472.472,0,0,1,1.5,1H16V4a1.473,1.473,0,0,0,1.5,1.5h1v-1h-1A.472.472,0,0,1,17,4V1.8l3,3.35V18h1V4.8L16.7,0H1.5A1.473,1.473,0,0,0,0,1.5v27A1.473,1.473,0,0,0,1.5,30h18A1.473,1.473,0,0,0,21,28.5H20a.472.472,0,0,1-.5.5Zm0,0" fill="#db650d"/>
    <path id="Path_3959" data-name="Path 3959" d="M112,40h5.5v1H112Zm0,0" transform="translate(-105 -37.499)" fill="#db650d"/>
    <path id="Path_3960" data-name="Path 3960" d="M48,80H58.5v1H48Zm0,0" transform="translate(-45 -74.999)" fill="#db650d"/>
    <path id="Path_3961" data-name="Path 3961" d="M48,120H63v1H48Zm0,0" transform="translate(-45 -112.499)" fill="#db650d"/>
    <path id="Path_3962" data-name="Path 3962" d="M200,160h5.5v1H200Zm0,0" transform="translate(-187.5 -149.999)" fill="#db650d"/>
    <path id="Path_3963" data-name="Path 3963" d="M240,200h3v1h-3Zm0,0" transform="translate(-225 -187.499)" fill="#db650d"/>
    <path id="Path_3964" data-name="Path 3964" d="M240,240h3v1h-3Zm0,0" transform="translate(-225 -224.999)" fill="#db650d"/>
    <path id="Path_3965" data-name="Path 3965" d="M48,160h2v1H48Zm0,0" transform="translate(-45 -149.999)" fill="#db650d"/>
    <path id="Path_3966" data-name="Path 3966" d="M192,368h2.5v1H192Zm0,0" transform="translate(-180 -344.999)" fill="#db650d"/>
    <path id="Path_3967" data-name="Path 3967" d="M192,392h1.5v1H192Zm0,0" transform="translate(-180 -367.499)" fill="#db650d"/>
    <path id="Path_3968" data-name="Path 3968" d="M171.5,304h-10a1.473,1.473,0,0,0-1.5,1.5V311a1.473,1.473,0,0,0,1.5,1.5h10A1.473,1.473,0,0,0,173,311v-5.5A1.473,1.473,0,0,0,171.5,304Zm.5,7a.472.472,0,0,1-.5.5h-10a.472.472,0,0,1-.5-.5v-4h11Zm0-5H161v-.5a.472.472,0,0,1,.5-.5h10a.472.472,0,0,1,.5.5Zm0,0" transform="translate(-150 -284.999)" fill="#db650d"/>
  </g>
</svg>
