<svg xmlns="http://www.w3.org/2000/svg" width="29.745" height="28.532" viewBox="0 0 29.745 28.532">
  <g id="snapchat_2_" data-name="snapchat (2)" transform="translate(0.001 -0.479)">
    <path id="Path_3975" data-name="Path 3975" d="M25.184,23.951c1.216-.195,3.754-.654,3.824-1.88a.672.672,0,0,0-.558-.705h0c-3.751-.63-6.113-4.948-5.749-5.812.263-.625,1.435-.866,1.952-1.069,2.474-.991,1.408-2.688-.053-2.688-.658,0-1.439.714-2.159.378.223-3.8.62-6.474-2.067-9.061C16.888-.242,9.812.149,7.4,5.658c-.718,1.635-.442,4.622-.327,6.515a2.3,2.3,0,0,1-1.736-.258c-1.265-.6-3.429,1.377-.472,2.566,1.281.512,2.493.658,1.817,2.058a9.9,9.9,0,0,1-1.45,2.3C2.446,22.135-.09,20.787.577,22.367v0C1,23.374,3.245,23.777,4.33,23.951c.3.569.082,1.875,1.1,1.875a9.717,9.717,0,0,1,3.218-.173c2.2.374,4.7,5.024,10.221,1.056v0a4.688,4.688,0,0,1,4.56-.98c1.837.362,1.326-.928,1.754-1.775Z" transform="translate(0.112 0.117)" fill="#ffeb3b"/>
    <path id="Path_3976" data-name="Path 3976" d="M14.8,29c.021,0-.041.007-.105.007a7,7,0,0,1-4.3-1.682c-3.8-2.739-5.515,1.419-6.432-2.709-5.257-.933-4.225-3.526-2.887-3.747A6.367,6.367,0,0,0,4.87,18.556c.651-.77,1.6-2.373,1.486-2.648-.124-.3-1.247-.586-1.61-.732-3.739-1.507-1.078-4.671.965-3.7a2.891,2.891,0,0,0,.818.274c-.114-1.86-.31-4.572.414-6.22,2.936-6.709,12.905-6.75,15.855,0,.726,1.653.527,4.358.413,6.192.606-.151,1.283-.706,2.361-.26,1.685.613,2.1,2.889-1.034,3.874-.285.093-1.051.34-1.15.576-.145.347,1.793,4.377,5.28,4.962a1.29,1.29,0,0,1,1.073,1.353c-.089,1.574-2.4,2.113-3.963,2.392-.229,1.037-.4,1.927-1.544,1.927-1.958-.115-2.579-.877-4.888.786A6.806,6.806,0,0,1,14.8,29Zm3.7-2.592c2.8-2.016,3.487-1.267,5.73-1.1.269,0,.077-.462.654-1.8.491-.1,3.265-.488,3.593-1.26h0l-.017-.151c-4.174-.7-5.992-4.984-6.067-5.166-1.238-2.548,2.177-2.527,3.062-3.45.359-.377.1-.706-.335-.865-.741-.307-.989.33-2.145.383a2.3,2.3,0,0,1-1.066-.323c.275-3.863.654-6.583-1.853-9C16.892.631,10.321.9,8.079,6.023,7.4,7.56,7.706,10.67,7.83,12.682a2.511,2.511,0,0,1-2.651-.092c-.477-.227-2.146.556.027,1.434.585.234,1.908.485,2.293,1.407.59,1.42-2.279,6-6.217,6.661h0l-.021.154c.349.833,3.462,1.219,3.586,1.258a6.457,6.457,0,0,1,.525,1.7c.131.446,1.231-.437,3.495-.043,2.366.4,4.682,4.8,9.635,1.249Z" transform="translate(0)" fill="#212121"/>
  </g>
</svg>
