<svg id="whatsapp" xmlns="http://www.w3.org/2000/svg" width="28.255" height="28.255" viewBox="0 0 28.255 28.255">
  <path id="Path_3973" data-name="Path 3973" d="M14.131,0h-.007A14.119,14.119,0,0,0,2.69,22.408L.929,27.656l5.43-1.736A14.125,14.125,0,1,0,14.131,0Z" transform="translate(0)" fill="#4caf50"/>
  <path id="Path_3974" data-name="Path 3974" d="M123.7,130.576a3.986,3.986,0,0,1-2.773,1.994c-.738.157-1.7.283-4.948-1.063-4.152-1.72-6.825-5.939-7.034-6.213a8.069,8.069,0,0,1-1.678-4.261,4.51,4.51,0,0,1,1.445-3.438,2.053,2.053,0,0,1,1.445-.507c.175,0,.332.009.473.016.415.018.623.042.9.7.341.821,1.171,2.848,1.27,3.057a.841.841,0,0,1,.06.765,2.442,2.442,0,0,1-.457.648c-.208.24-.406.424-.615.682-.191.224-.406.464-.166.879a12.539,12.539,0,0,0,2.292,2.848,10.386,10.386,0,0,0,3.313,2.043.893.893,0,0,0,1-.157,17.093,17.093,0,0,0,1.1-1.462.788.788,0,0,1,1.014-.307c.381.132,2.4,1.13,2.815,1.337s.689.307.789.482A3.518,3.518,0,0,1,123.7,130.576Z" transform="translate(-101.345 -110.626)" fill="#fafafa"/>
</svg>
